<svg width="227" height="225" viewBox="0 0 227 225" fill="none" xmlns="http://www.w3.org/2000/svg">
<g id="Logo full" filter="url(#filter0_d_2018_53909)">
<path id="Rectangle 119" d="M54.533 22.0042C56.245 18.9158 59.426 17.016 62.9022 17.0062L149.659 16.7606C153.163 16.7507 156.441 18.6625 158.266 21.7804L205.793 102.988C207.653 106.165 207.715 110.101 205.957 113.274L162.411 191.834C160.653 195.006 157.349 196.918 153.778 196.829L62.4939 194.561C58.9891 194.474 55.7605 192.473 54.0167 189.307L10.8425 110.926C9.1126 107.786 9.1016 103.966 10.8135 100.878L54.533 22.0042Z" fill="#FAFAFF"/>
<g id="Rectangle 120" filter="url(#filter1_d_2018_53909)">
<path d="M103.868 205.14L26.9785 158.701C25.4796 157.796 24.5635 156.173 24.5635 154.422V60.1829C24.5635 58.4237 25.488 56.7939 26.998 55.8913L103.714 10.0316C105.292 9.0883 107.26 9.08701 108.839 10.0282L188.89 57.7381C190.399 58.6379 191.326 60.2642 191.33 62.0217L191.538 152.903C191.542 154.662 190.622 156.293 189.114 157.199L148.67 181.511C147.055 182.482 145.031 182.462 143.435 181.46L129.016 172.403C125.859 170.42 125.905 165.804 129.1 163.884L162.776 143.642C164.28 142.738 165.2 141.112 165.2 139.357V78.2473C165.2 76.4978 164.286 74.8756 162.789 73.9698L108.86 41.3297C107.271 40.3678 105.28 40.3663 103.689 41.3259L53.8199 71.4082C52.3196 72.3132 51.4025 73.9375 51.4025 75.6896V139.365C51.4025 141.115 52.3181 142.738 53.8164 143.644L125.298 186.842C128.524 188.791 128.515 193.474 125.281 195.41L109.023 205.15C107.435 206.101 105.452 206.097 103.868 205.14Z" fill="url(#paint0_linear_2018_53909)"/>
</g>
<g id="Rectangle 121" filter="url(#filter2_d_2018_53909)">
<path d="M131.271 65.1077C134.481 67.0525 134.482 71.7111 131.271 73.6592L93.877 96.3478C92.3821 97.2548 91.4692 98.8764 91.4692 100.625L91.4692 112.633C91.4692 114.396 92.3977 116.028 93.9129 116.929L103.486 122.619C106.819 124.6 111.042 122.197 111.042 118.319L111.042 111.099C111.042 109.343 111.963 107.715 113.469 106.81L149.005 85.4619C152.338 83.4598 156.578 85.8584 156.578 89.7453L156.578 135.237C156.578 136.977 155.674 138.592 154.19 139.502L113.646 164.351C112.062 165.322 110.071 165.335 108.476 164.385L62.6045 137.077C61.0909 136.176 60.1636 134.545 60.1636 132.783L60.1636 81.0421C60.1636 79.2963 61.0742 77.6764 62.5659 76.7687L103.849 51.648C105.443 50.6782 107.443 50.6759 109.039 51.642L131.271 65.1077Z" fill="#3B475B"/>
</g>
</g>
<defs>
<filter id="filter0_d_2018_53909" x="0" y="-0.5" width="227" height="227" filterUnits="userSpaceOnUse" color-interpolation-filters="sRGB">
<feFlood flood-opacity="0" result="BackgroundImageFix"/>
<feColorMatrix in="SourceAlpha" type="matrix" values="0 0 0 0 0 0 0 0 0 0 0 0 0 0 0 0 0 0 127 0" result="hardAlpha"/>
<feOffset dx="5" dy="5"/>
<feGaussianBlur stdDeviation="7"/>
<feColorMatrix type="matrix" values="0 0 0 0 0 0 0 0 0 0 0 0 0 0 0 0 0 0 0.25 0"/>
<feBlend mode="normal" in2="BackgroundImageFix" result="effect1_dropShadow_2018_53909"/>
<feBlend mode="normal" in="SourceGraphic" in2="effect1_dropShadow_2018_53909" result="shape"/>
</filter>
<filter id="filter1_d_2018_53909" x="20.5635" y="9.32324" width="174.975" height="204.537" filterUnits="userSpaceOnUse" color-interpolation-filters="sRGB">
<feFlood flood-opacity="0" result="BackgroundImageFix"/>
<feColorMatrix in="SourceAlpha" type="matrix" values="0 0 0 0 0 0 0 0 0 0 0 0 0 0 0 0 0 0 127 0" result="hardAlpha"/>
<feOffset dy="4"/>
<feGaussianBlur stdDeviation="2"/>
<feColorMatrix type="matrix" values="0 0 0 0 0 0 0 0 0 0 0 0 0 0 0 0 0 0 0.25 0"/>
<feBlend mode="normal" in2="BackgroundImageFix" result="effect1_dropShadow_2018_53909"/>
<feBlend mode="normal" in="SourceGraphic" in2="effect1_dropShadow_2018_53909" result="shape"/>
</filter>
<filter id="filter2_d_2018_53909" x="56.1641" y="50.9189" width="104.414" height="122.169" filterUnits="userSpaceOnUse" color-interpolation-filters="sRGB">
<feFlood flood-opacity="0" result="BackgroundImageFix"/>
<feColorMatrix in="SourceAlpha" type="matrix" values="0 0 0 0 0 0 0 0 0 0 0 0 0 0 0 0 0 0 127 0" result="hardAlpha"/>
<feOffset dy="4"/>
<feGaussianBlur stdDeviation="2"/>
<feColorMatrix type="matrix" values="0 0 0 0 0 0 0 0 0 0 0 0 0 0 0 0 0 0 0.25 0"/>
<feBlend mode="normal" in2="BackgroundImageFix" result="effect1_dropShadow_2018_53909"/>
<feBlend mode="normal" in="SourceGraphic" in2="effect1_dropShadow_2018_53909" result="shape"/>
</filter>
<linearGradient id="paint0_linear_2018_53909" x1="108.054" y1="206.695" x2="108.054" y2="8.50023" gradientUnits="userSpaceOnUse">
<stop stop-color="#637EF3"/>
<stop offset="1" stop-color="#7562F0"/>
</linearGradient>
</defs>
</svg>
