<svg width="228" height="228" viewBox="0 0 228 228" fill="none" xmlns="http://www.w3.org/2000/svg">
<path d="M178.157 155.008C170.945 202.606 144.501 208.616 128.875 215.347C157.723 202.921 171.426 159.094 130.798 125.919C113.73 102.601 128.875 64.618 150.03 62.6948C140.414 98.2737 180.714 116.063 178.157 155.008Z" fill="#FE1619" stroke="white" stroke-width="0.665039"/>
<path d="M178.157 155.008C170.945 202.606 144.501 208.616 128.875 215.347C157.723 202.921 171.426 159.094 130.798 125.919C113.73 102.601 128.875 64.618 150.03 62.6948C140.414 98.2737 180.714 116.063 178.157 155.008Z" fill="url(#paint0_linear_409_2)" stroke="white" stroke-width="0.665039"/>
<path d="M178.157 155.008C170.945 202.606 144.501 208.616 128.875 215.347C157.723 202.921 171.426 159.094 130.798 125.919C113.73 102.601 128.875 64.618 150.03 62.6948C140.414 98.2737 180.714 116.063 178.157 155.008Z" fill="url(#paint1_linear_409_2)" stroke="white" stroke-width="0.665039"/>
<path d="M76.018 85.0521C90.6822 60.7719 109.193 38.6553 97.173 12.6924C111.356 15.5772 126.742 33.1262 126.021 46.5884C116.405 54.5216 111.597 58.1275 103.423 70.8686C91.163 88.658 106.548 100.197 103.423 119.429C86.5955 138.661 78.1815 149.719 79.3835 182.173C33.2272 150.681 53.1802 119.429 76.018 85.0521Z" fill="#FE1619" stroke="white" stroke-width="0.665039"/>
<path d="M76.018 85.0521C90.6822 60.7719 109.193 38.6553 97.173 12.6924C111.356 15.5772 126.742 33.1262 126.021 46.5884C116.405 54.5216 111.597 58.1275 103.423 70.8686C91.163 88.658 106.548 100.197 103.423 119.429C86.5955 138.661 78.1815 149.719 79.3835 182.173C33.2272 150.681 53.1802 119.429 76.018 85.0521Z" fill="url(#paint2_linear_409_2)" stroke="white" stroke-width="0.665039"/>
<path d="M76.018 85.0521C90.6822 60.7719 109.193 38.6553 97.173 12.6924C111.356 15.5772 126.742 33.1262 126.021 46.5884C116.405 54.5216 111.597 58.1275 103.423 70.8686C91.163 88.658 106.548 100.197 103.423 119.429C86.5955 138.661 78.1815 149.719 79.3835 182.173C33.2272 150.681 53.1802 119.429 76.018 85.0521Z" fill="url(#paint3_linear_409_2)" stroke="white" stroke-width="0.665039"/>
<path d="M138.164 117.746C139.366 128.083 139.847 168.71 103.787 181.932C118.705 164.063 96.5752 108.611 96.5752 91.5426C96.5752 74.4744 111.239 43.4631 143.933 38.1743C121.336 64.6181 136.962 95.389 138.164 117.746Z" fill="#FFAD01" stroke="white" stroke-width="0.665039"/>
<path d="M138.164 117.746C139.366 128.083 139.847 168.71 103.787 181.932C118.705 164.063 96.5752 108.611 96.5752 91.5426C96.5752 74.4744 111.239 43.4631 143.933 38.1743C121.336 64.6181 136.962 95.389 138.164 117.746Z" fill="url(#paint4_linear_409_2)" fill-opacity="0.82" stroke="white" stroke-width="0.665039"/>
<path d="M138.164 117.746C139.366 128.083 139.847 168.71 103.787 181.932C118.705 164.063 96.5752 108.611 96.5752 91.5426C96.5752 74.4744 111.239 43.4631 143.933 38.1743C121.336 64.6181 136.962 95.389 138.164 117.746Z" fill="url(#paint5_linear_409_2)" fill-opacity="0.82" stroke="white" stroke-width="0.665039"/>
<path d="M133.84 151.907C122.016 178.909 78.9179 212.823 51.4863 140.269C40.3718 201.787 89.0238 215.308 101.321 215.308C128.516 215.308 154.887 185.484 133.84 151.907Z" fill="#FE1619" stroke="white" stroke-width="0.665039"/>
<path d="M133.84 151.907C122.016 178.909 78.9179 212.712 51.4863 140.158C40.3718 201.676 89.0237 215.308 101.321 215.308C128.516 215.308 154.887 185.484 133.84 151.907Z" fill="url(#paint6_radial_409_2)" stroke="white" stroke-width="0.665039"/>
<path d="M133.84 152.018C122.016 179.02 78.9179 212.823 51.4863 140.269C40.3718 201.787 89.0237 215.308 101.321 215.308C128.516 215.308 154.887 185.595 133.84 152.018Z" stroke="white" stroke-width="0.665039"/>
<defs>
<linearGradient id="paint0_linear_409_2" x1="105.726" y1="108.851" x2="178.085" y2="115.582" gradientUnits="userSpaceOnUse">
<stop stop-color="#831415"/>
<stop offset="0.70921" stop-color="#8D1719" stop-opacity="0.0272231"/>
<stop offset="0.70931" stop-color="#8D1819" stop-opacity="0"/>
</linearGradient>
<linearGradient id="paint1_linear_409_2" x1="194.432" y1="173.759" x2="143.228" y2="155.007" gradientUnits="userSpaceOnUse">
<stop offset="0.160369" stop-color="#831415"/>
<stop offset="0.70931" stop-color="#8D1819" stop-opacity="0"/>
<stop offset="0.862915" stop-color="#8D1819" stop-opacity="0"/>
</linearGradient>
<linearGradient id="paint2_linear_409_2" x1="83.6088" y1="38.6553" x2="98.7539" y2="74.715" gradientUnits="userSpaceOnUse">
<stop stop-color="#A71819" stop-opacity="0.72"/>
<stop offset="1" stop-color="#A7181A" stop-opacity="0"/>
</linearGradient>
<linearGradient id="paint3_linear_409_2" x1="73.7525" y1="166.787" x2="67.983" y2="103.803" gradientUnits="userSpaceOnUse">
<stop stop-color="#A71819" stop-opacity="0.72"/>
<stop offset="1" stop-color="#A7181A" stop-opacity="0"/>
</linearGradient>
<linearGradient id="paint4_linear_409_2" x1="104.043" y1="64.1373" x2="121.832" y2="82.4075" gradientUnits="userSpaceOnUse">
<stop offset="0.0145856" stop-color="#D3801E"/>
<stop offset="1" stop-color="#FFAD01" stop-opacity="0"/>
</linearGradient>
<linearGradient id="paint5_linear_409_2" x1="137.458" y1="148.276" x2="85.5323" y2="99.7161" gradientUnits="userSpaceOnUse">
<stop offset="0.0145856" stop-color="#D3801E"/>
<stop offset="1" stop-color="#FFAD01" stop-opacity="0"/>
</linearGradient>
<radialGradient id="paint6_radial_409_2" cx="0" cy="0" r="1" gradientTransform="matrix(-37.1272 -45.7862 89.7161 -71.7205 121.824 235.735)" gradientUnits="userSpaceOnUse">
<stop stop-color="#500D0E"/>
<stop offset="0.699733" stop-color="#490E0F" stop-opacity="0.130961"/>
<stop offset="1" stop-color="#2E0D0E" stop-opacity="0"/>
</radialGradient>
</defs>
</svg>
